<?xml version="1.0" standalone="no"?>
<!DOCTYPE svg PUBLIC "-//W3C//DTD SVG 20010904//EN"
 "http://www.w3.org/TR/2001/REC-SVG-20010904/DTD/svg10.dtd">
<svg version="1.1" xmlns="http://www.w3.org/2000/svg"
 width="512" height="512" viewBox="0 0 616.000000 616.000000"
 preserveAspectRatio="xMidYMid meet">
<metadata>
Created by potrace 1.15, written by Peter Selinger 2001-2017
LICENCE: CC0
https://svgsilh.com/image/2939419.html
</metadata>
<title>SVG fancy analog clock</title>
<g transform="translate(0.000000,1280.000000) scale(0.100000,-0.100000)"
fill="#000000" stroke="none">
<path d="M3019 12681 c-61 -63 -89 -137 -89 -235 0 -40 7 -92 15 -117 18 -53
79 -135 117 -157 27 -16 28 -16 73 28 25 25 59 72 75 104 25 50 30 71 30 135
0 63 -5 86 -29 138 -32 67 -104 153 -129 153 -9 0 -37 -22 -63 -49z"/>
<path d="M7246 12533 c-3 -10 -16 -56 -30 -103 -33 -108 -206 -872 -206 -906
0 -2 -9 -4 -20 -4 -31 0 -95 -36 -118 -65 -30 -38 -44 -89 -40 -142 l3 -45
-237 -180 c-131 -98 -238 -181 -238 -184 0 -12 21 -44 30 -44 5 0 120 72 256
161 223 145 250 159 271 150 16 -8 23 -17 19 -29 -13 -46 -46 -257 -42 -269 3
-7 16 -13 30 -13 22 0 26 8 56 133 35 143 42 157 72 157 38 0 99 44 126 89 19
32 26 59 27 100 l1 55 310 215 c600 417 1234 890 1234 922 0 25 -45 5 -195
-85 -197 -117 -693 -450 -1110 -744 -159 -113 -295 -208 -300 -213 -6 -4 -18
-2 -28 6 -16 12 -15 21 17 171 83 384 155 780 156 857 0 20 -5 27 -19 27 -11
0 -22 -8 -25 -17z m-202 -1166 c22 -16 18 -55 -6 -71 -40 -24 -80 44 -42 71
10 7 21 13 24 13 3 0 14 -6 24 -13z"/>
<path d="M2784 12358 c3 -39 8 -74 10 -76 3 -2 14 -1 26 3 18 6 21 12 16 37
-3 17 -6 48 -6 69 0 35 -2 39 -26 39 l-27 0 7 -72z"/>
<path d="M3346 12408 c-3 -13 -7 -44 -10 -70 -5 -41 -3 -48 15 -53 11 -4 23
-5 25 -2 3 3 8 37 11 76 6 68 5 71 -15 71 -14 0 -23 -8 -26 -22z"/>
<path d="M2511 12381 c-11 -7 -12 -20 -1 -75 10 -54 16 -66 31 -66 27 0 30 16
16 84 -13 61 -22 72 -46 57z"/>
<path d="M3625 12368 c-27 -121 -27 -128 4 -128 14 0 21 15 33 68 13 60 13 68
-1 74 -26 11 -30 9 -36 -14z"/>
<path d="M1545 12265 c-48 -163 35 -341 189 -410 28 -13 69 -25 91 -27 39 -3
40 -2 54 37 7 22 14 76 15 120 0 67 -4 89 -26 137 -46 99 -159 184 -263 195
l-44 5 -16 -57z"/>
<path d="M3905 12308 c-38 -105 -43 -127 -28 -132 27 -11 31 -6 49 47 9 28 19
57 21 64 3 6 -5 17 -16 23 -16 8 -22 8 -26 -2z"/>
<path d="M4465 12291 c-155 -73 -234 -258 -180 -421 17 -52 18 -52 52 -47 47
8 150 57 190 91 18 15 47 57 65 94 30 60 33 76 33 152 0 47 -6 102 -13 123
-12 34 -17 37 -50 37 -20 0 -64 -13 -97 -29z"/>
<path d="M2227 12303 c-3 -5 4 -36 14 -70 15 -49 24 -63 39 -63 30 0 31 13 9
79 -16 45 -26 61 -39 61 -10 0 -21 -3 -23 -7z"/>
<path d="M1976 12207 c-19 -14 -19 -15 3 -68 28 -65 33 -71 54 -63 22 8 21 18
-11 87 -25 54 -28 57 -46 44z"/>
<path d="M4145 12153 c-23 -54 -26 -66 -14 -74 23 -14 31 -6 60 58 l27 61 -23
10 c-21 10 -24 6 -50 -55z"/>
<path d="M1478 11918 c-14 -12 -11 -20 27 -70 39 -52 44 -56 61 -43 18 12 17
16 -20 69 -42 61 -44 62 -68 44z"/>
<path d="M4625 11875 c-36 -53 -37 -56 -19 -69 17 -13 22 -9 60 42 31 42 40
60 32 69 -19 23 -34 14 -73 -42z"/>
<path d="M2860 11824 c0 -9 8 -18 18 -21 10 -3 35 -43 59 -94 l42 -89 -41 -89
c-26 -57 -47 -91 -59 -94 -11 -3 -19 -12 -19 -21 0 -12 10 -16 41 -16 36 0 40
2 37 23 -1 13 11 54 27 92 l29 69 33 -69 c22 -46 29 -73 23 -79 -22 -22 -10
-36 30 -36 33 0 40 3 40 20 0 11 -6 20 -12 20 -7 0 -31 40 -54 89 l-41 88 43
91 c23 51 47 92 53 92 6 0 11 9 11 20 0 17 -7 20 -40 20 -40 0 -52 -14 -30
-36 7 -7 0 -33 -21 -80 l-31 -69 -33 65 c-23 45 -32 73 -28 93 5 26 4 27 -36
27 -31 0 -41 -4 -41 -16z"/>
<path d="M3140 11820 c0 -11 5 -20 10 -20 6 0 10 -66 10 -179 0 -109 -4 -182
-10 -186 -24 -15 -9 -35 25 -35 34 0 49 20 25 35 -6 4 -10 77 -10 186 0 113 4
179 10 179 6 0 10 9 10 20 0 16 -7 20 -35 20 -28 0 -35 -4 -35 -20z"/>
<path d="M3220 11820 c0 -11 5 -20 10 -20 6 0 10 -68 10 -185 0 -117 -4 -185
-10 -185 -5 0 -10 -7 -10 -15 0 -11 11 -15 40 -15 29 0 40 4 40 15 0 8 -4 15
-10 15 -6 0 -10 68 -10 185 0 117 4 185 10 185 6 0 10 9 10 20 0 17 -7 20 -40
20 -33 0 -40 -3 -40 -20z"/>
<path d="M1258 11743 c-15 -17 -12 -22 33 -73 46 -50 50 -53 66 -38 15 15 14
19 -14 55 -17 21 -40 46 -50 56 -19 16 -20 16 -35 0z"/>
<path d="M4845 11705 c-26 -31 -46 -57 -44 -58 2 -2 11 -8 20 -15 13 -10 23
-3 62 42 44 51 45 54 28 70 -17 16 -21 13 -66 -39z"/>
<path d="M2153 11614 c-24 -17 -21 -44 6 -44 19 -1 195 -274 196 -305 1 -40
14 -47 45 -25 29 21 32 53 4 48 -17 -4 -198 279 -198 312 -1 30 -22 35 -53 14z"/>
<path d="M2096 11575 c-10 -8 -23 -16 -28 -17 -5 -2 -6 -11 -2 -21 3 -10 12
-16 19 -13 8 3 15 -19 23 -72 6 -42 9 -78 7 -80 -8 -8 -130 81 -130 96 0 24
-26 25 -54 3 -26 -20 -21 -41 11 -41 11 0 57 -24 102 -53 l82 -54 12 -99 c7
-63 8 -100 2 -102 -13 -5 -13 -29 0 -37 6 -3 24 3 40 15 l30 21 -19 27 c-11
16 -22 54 -26 91 l-6 63 38 -23 c73 -44 92 -60 87 -73 -9 -23 14 -28 46 -9 16
9 30 20 30 24 0 11 -26 29 -33 23 -3 -4 -44 17 -90 47 l-84 52 -13 98 c-6 54
-9 102 -6 107 7 11 -3 42 -13 42 -3 0 -15 -7 -25 -15z"/>
<path d="M4106 11561 c-4 -5 -4 -16 0 -24 7 -19 -180 -313 -197 -309 -11 3
-28 -14 -29 -28 0 -3 14 -14 31 -24 26 -15 33 -16 40 -5 5 8 7 21 4 29 -4 16
176 305 191 305 13 0 34 15 34 23 0 7 -53 42 -63 42 -3 0 -8 -4 -11 -9z"/>
<path d="M1056 11541 c-16 -18 -14 -21 39 -66 46 -39 58 -45 70 -35 8 7 15 15
15 19 0 3 -24 27 -54 53 -52 45 -54 46 -70 29z"/>
<path d="M5044 11510 c-43 -41 -49 -50 -38 -65 12 -16 15 -16 41 3 15 11 40
33 56 49 26 28 27 30 10 46 -17 15 -22 12 -69 -33z"/>
<path d="M880 11321 c-5 -11 -10 -22 -10 -24 0 -3 25 -22 56 -43 54 -37 56
-38 70 -20 8 11 13 20 11 21 -1 1 -28 21 -59 43 -54 40 -58 41 -68 23z"/>
<path d="M5225 11299 c-27 -21 -50 -43 -49 -49 2 -25 5 -30 14 -30 17 0 110
73 110 86 0 6 -6 16 -12 22 -9 7 -27 -1 -63 -29z"/>
<path d="M515 11247 c-39 -13 -40 -14 -40 -58 2 -94 86 -207 193 -257 49 -23
70 -27 147 -27 68 0 98 5 123 18 32 17 33 21 27 55 -18 102 -93 205 -179 250
-42 21 -67 26 -141 29 -54 1 -106 -3 -130 -10z"/>
<path d="M5418 11236 c-126 -52 -218 -170 -218 -281 0 -28 4 -33 38 -43 148
-44 295 -4 376 102 36 48 74 133 78 176 3 33 1 35 -42 52 -66 25 -162 23 -232
-6z"/>
<path d="M1317 10850 c-15 -25 -16 -31 -4 -36 8 -3 19 -4 25 -2 9 3 97 -121
90 -127 -8 -6 -157 18 -153 25 3 4 -3 11 -12 14 -17 7 -52 -27 -53 -50 0 -17
26 -24 38 -12 7 7 41 7 109 -2 l99 -12 53 -83 c28 -46 51 -92 49 -102 -5 -29
26 -25 45 6 14 24 14 31 3 40 -7 6 -16 8 -19 5 -3 -4 -24 22 -46 57 -22 35
-39 65 -37 67 2 2 32 0 66 -4 44 -5 68 -13 82 -28 l20 -21 24 30 c22 28 23 31
7 42 -11 9 -19 9 -23 3 -6 -9 -105 -1 -186 16 -22 4 -118 143 -126 180 -5 30
-32 27 -51 -6z"/>
<path d="M591 10821 c-9 -17 -3 -22 55 -47 55 -23 67 -25 75 -13 15 24 11 28
-47 54 -68 30 -71 30 -83 6z"/>
<path d="M4831 10831 c-7 -5 -11 -13 -7 -19 9 -14 -273 -216 -303 -217 -33 0
-36 -16 -10 -49 16 -21 24 -24 35 -15 7 6 12 16 11 21 -3 17 275 219 295 214
10 -2 22 2 28 9 15 18 -29 69 -49 56z"/>
<path d="M5493 10814 c-55 -26 -58 -30 -44 -53 8 -12 20 -10 75 13 58 25 64
30 55 47 -12 24 -22 23 -86 -7z"/>
<path d="M4879 10753 c-1 -5 -2 -14 -3 -20 -2 -19 -286 -222 -301 -216 -29 10
-36 -8 -15 -38 25 -34 40 -37 47 -9 7 27 287 232 307 224 22 -9 29 15 12 41
-15 23 -45 34 -47 18z"/>
<path d="M8328 10650 c-4 -19 -21 -182 -39 -361 -32 -316 -32 -327 -14 -345
17 -17 18 -46 11 -639 -6 -611 -14 -963 -23 -977 -2 -4 -20 -15 -39 -24 -41
-19 -74 -77 -74 -126 1 -49 34 -114 68 -132 16 -8 32 -21 34 -28 2 -7 2 -143
-1 -303 l-6 -290 -45 -23 c-60 -32 -89 -59 -111 -107 -62 -135 30 -290 186
-312 70 -9 132 13 187 68 74 74 87 157 41 250 -27 51 -47 70 -122 111 l-31 17
0 287 0 287 53 51 c59 56 69 84 55 151 -9 42 -26 62 -107 127 -11 9 -13 140
-9 794 l4 783 27 29 c35 36 35 49 -3 416 -37 360 -34 338 -42 296z m8 -2467
c4 -16 1 -30 -9 -40 -20 -21 -63 -10 -70 18 -3 12 2 28 13 39 24 24 58 15 66
-17z m53 -851 c49 -36 65 -69 65 -128 -2 -86 -55 -143 -141 -151 -98 -10 -173
56 -173 150 0 74 41 132 105 150 36 10 119 -2 144 -21z"/>
<path d="M497 10574 c-4 -4 -7 -15 -7 -25 0 -14 16 -23 63 -38 67 -20 77 -19
77 9 0 13 -14 23 -52 36 -29 9 -58 19 -64 21 -5 2 -13 0 -17 -3z"/>
<path d="M5603 10559 c-61 -19 -72 -30 -55 -56 6 -10 23 -8 73 8 35 12 65 23
66 23 5 4 -10 46 -16 45 -3 0 -34 -9 -68 -20z"/>
<path d="M416 10284 c-9 -23 -6 -24 64 -41 66 -15 80 -12 80 16 0 14 -13 21
-57 30 -73 14 -80 14 -87 -5z"/>
<path d="M5658 10288 c-47 -10 -56 -20 -40 -46 7 -9 21 -10 68 -1 68 14 77 19
68 42 -7 19 -25 20 -96 5z"/>
<path d="M7056 10238 c-21 -169 -28 -429 -28 -1109 l-1 -759 -32 -19 c-124
-73 -126 -248 -4 -323 l47 -30 7 -191 c4 -106 10 -241 14 -302 l6 -110 30 0
30 0 6 200 c4 110 7 248 8 306 l1 107 30 12 c42 17 87 72 100 121 22 81 -22
179 -94 213 l-36 17 0 432 c0 667 -17 1193 -46 1430 -8 61 -31 64 -38 5z m62
-2020 c34 -34 -6 -90 -48 -68 -35 19 -20 80 20 80 9 0 21 -5 28 -12z"/>
<path d="M370 10001 c0 -25 5 -27 82 -35 51 -5 57 -4 63 15 4 11 5 22 3 25 -2
2 -37 7 -76 10 -69 7 -72 6 -72 -15z"/>
<path d="M5682 10013 c-29 -4 -32 -7 -26 -26 3 -12 7 -23 8 -24 0 0 31 1 69 4
62 5 67 7 67 29 0 22 -4 24 -42 22 -24 0 -58 -3 -76 -5z"/>
<path d="M3005 9881 c-187 -84 -129 -361 75 -361 83 0 144 40 175 113 41 99 0
202 -100 248 -51 24 -99 24 -150 0z m105 -145 c6 -8 10 -25 8 -38 -2 -19 -9
-23 -38 -23 -29 0 -36 4 -38 23 -4 28 14 52 38 52 10 0 23 -7 30 -14z"/>
<path d="M970 9850 c0 -28 4 -40 14 -40 8 0 16 6 19 13 3 8 25 2 76 -23 l72
-34 -63 -33 c-44 -22 -71 -31 -90 -27 -26 5 -28 3 -28 -25 0 -17 0 -34 -1 -38
0 -5 7 -9 15 -11 9 -2 16 3 16 10 0 8 43 35 96 60 l95 47 89 -42 c61 -29 89
-47 90 -59 0 -11 8 -18 20 -18 17 0 20 7 20 41 0 40 -1 41 -27 36 -20 -4 -48
5 -91 27 l-64 32 69 32 c37 17 70 27 71 22 2 -6 12 -10 23 -10 16 0 19 7 19
40 0 33 -3 40 -20 40 -11 0 -20 -6 -20 -13 0 -7 -41 -31 -90 -54 l-90 -42 -95
45 c-52 25 -95 49 -95 55 0 5 -7 9 -15 9 -11 0 -15 -11 -15 -40z"/>
<path d="M232 9849 c-48 -15 -77 -33 -118 -73 -30 -29 -54 -59 -54 -68 0 -24
87 -97 150 -126 71 -33 141 -39 216 -17 91 26 204 110 204 150 0 20 -98 105
-146 127 -68 30 -174 33 -252 7z"/>
<path d="M5689 9841 c-57 -22 -109 -61 -144 -107 l-27 -36 48 -45 c74 -69 157
-105 245 -105 62 0 81 5 144 36 67 33 145 101 145 126 0 20 -86 96 -135 121
-68 33 -207 38 -276 10z"/>
<path d="M4750 9765 c0 -28 4 -35 20 -35 11 0 20 5 20 10 0 6 68 10 185 10
117 0 185 -4 185 -10 0 -5 9 -10 20 -10 16 0 20 7 20 35 0 28 -4 35 -20 35
-11 0 -20 -4 -20 -10 0 -6 -68 -10 -185 -10 -117 0 -185 4 -185 10 0 6 -9 10
-20 10 -16 0 -20 -7 -20 -35z"/>
<path d="M4757 9703 c-4 -3 -7 -19 -7 -35 0 -34 28 -50 42 -25 8 15 32 17 188
17 153 0 180 -2 180 -15 0 -8 9 -15 20 -15 17 0 20 7 20 40 0 33 -3 40 -20 40
-11 0 -20 -4 -20 -10 0 -6 -68 -10 -185 -10 -117 0 -185 4 -185 10 0 11 -23
14 -33 3z"/>
<path d="M968 9585 c3 -21 10 -35 18 -35 8 0 14 5 14 10 0 6 68 10 185 10 117
0 185 -4 185 -10 0 -5 9 -10 20 -10 16 0 20 7 20 35 0 28 -4 35 -20 35 -11 0
-20 -4 -20 -10 0 -6 -68 -10 -185 -10 -117 0 -185 4 -185 10 0 6 -8 10 -18 10
-15 0 -17 -6 -14 -35z"/>
<path d="M4757 9613 c-14 -13 -7 -64 10 -70 9 -4 19 -1 21 5 5 15 372 17 372
2 0 -5 9 -10 20 -10 17 0 20 7 20 40 0 29 -4 40 -15 40 -9 0 -18 -7 -21 -15
-5 -13 -35 -15 -185 -15 -150 0 -181 2 -185 15 -6 16 -26 20 -37 8z"/>
<path d="M430 9461 c-48 -5 -55 -9 -58 -30 -4 -24 -3 -24 68 -18 40 3 74 8 77
11 9 8 -8 46 -20 44 -7 -1 -37 -4 -67 -7z"/>
<path d="M5656 9447 c-3 -12 -4 -23 -2 -25 2 -1 36 -6 75 -9 68 -6 71 -5 71
16 0 25 -6 28 -82 34 -51 5 -57 3 -62 -16z"/>
<path d="M7716 9461 c-10 -15 -27 -574 -25 -825 l1 -219 -35 -18 c-78 -40
-119 -128 -98 -209 16 -59 51 -104 101 -127 32 -15 40 -23 41 -48 13 -250 14
-258 31 -269 35 -21 43 6 46 159 3 141 4 143 27 149 35 9 83 54 107 99 42 84
3 204 -80 243 l-38 19 -12 475 c-13 515 -18 573 -44 578 -9 2 -19 -1 -22 -7z
m52 -1203 c34 -34 -6 -90 -48 -68 -35 19 -20 80 20 80 9 0 21 -5 28 -12z"/>
<path d="M472 9185 c-63 -16 -65 -17 -55 -42 8 -19 11 -19 76 -5 60 13 68 18
65 36 -4 26 -18 28 -86 11z"/>
<path d="M5615 9179 c-4 -11 -5 -22 -3 -23 1 -2 33 -10 70 -18 65 -14 68 -14
74 4 8 26 6 27 -63 43 -74 18 -71 18 -78 -6z"/>
<path d="M4673 9074 c-15 -30 -15 -36 -3 -44 9 -6 17 -5 22 2 4 8 23 -3 55
-32 56 -50 203 -191 203 -194 0 -3 -232 56 -291 74 -23 6 -39 18 -42 30 -7 29
-24 25 -42 -10 -18 -36 -11 -54 18 -46 11 3 107 -17 212 -44 105 -28 197 -50
203 -50 32 0 0 38 -135 166 -82 76 -149 146 -151 155 -6 34 -32 30 -49 -7z"/>
<path d="M1475 9062 c-5 -4 -10 -12 -10 -18 0 -7 -64 -80 -143 -164 -101 -107
-140 -156 -133 -163 7 -7 69 8 206 52 108 35 202 60 209 58 26 -10 36 14 18
45 -9 15 -19 28 -22 28 -15 -1 -32 -19 -26 -28 4 -7 -51 -30 -150 -62 -87 -27
-159 -48 -161 -46 -2 2 47 58 109 124 73 79 116 118 123 112 6 -5 17 -5 24 -1
10 7 10 14 -3 40 -17 32 -24 36 -41 23z"/>
<path d="M550 8915 c-62 -21 -73 -35 -51 -58 4 -4 35 2 69 14 46 15 62 26 62
39 0 29 -10 29 -80 5z"/>
<path d="M5546 8923 c-11 -27 -6 -31 56 -52 76 -26 74 -26 81 -1 6 23 -6 31
-80 53 -46 14 -52 14 -57 0z"/>
<path d="M4536 8825 c-9 -13 -16 -28 -16 -34 0 -13 26 -21 36 -11 12 12 325
-162 320 -177 -4 -9 14 -23 30 -23 2 0 11 14 20 31 13 26 13 33 3 40 -7 4 -18
4 -24 -1 -14 -11 -323 160 -329 183 -6 24 -21 21 -40 -8z"/>
<path d="M1633 8823 c-7 -3 -13 -12 -13 -21 -1 -21 -291 -205 -311 -197 -8 3
-20 1 -28 -4 -11 -7 -10 -14 8 -40 21 -29 58 -34 47 -5 -6 17 279 198 314 199
14 0 26 6 27 15 4 20 -29 59 -44 53z"/>
<path d="M1673 8748 c-4 -7 -8 -17 -8 -23 0 -15 -289 -196 -306 -191 -34 8
-43 -10 -23 -43 10 -17 21 -31 24 -31 14 1 32 19 26 28 -9 14 282 197 310 194
32 -2 38 13 17 48 -19 33 -28 37 -40 18z"/>
<path d="M1723 8678 c-6 -7 -12 -19 -14 -25 -6 -19 -303 -206 -307 -194 -3 8
-9 8 -23 0 -19 -10 -19 -10 1 -40 25 -34 40 -37 47 -9 6 23 299 213 314 204 6
-3 17 -3 25 0 15 6 11 20 -18 59 -12 15 -16 16 -25 5z"/>
<path d="M639 8652 c-51 -24 -56 -29 -47 -48 l10 -22 57 25 c67 30 74 35 65
56 -8 22 -18 21 -85 -11z"/>
<path d="M5446 8663 c-8 -21 -4 -25 65 -56 l57 -25 10 23 c10 21 7 25 -49 49
-71 31 -75 31 -83 9z"/>
<path d="M749 8520 c-142 -24 -272 -158 -281 -290 l-3 -45 45 -12 c25 -6 79
-12 121 -12 66 -1 84 3 137 30 34 17 78 49 98 72 47 54 87 141 88 191 1 35 -2
40 -34 51 -51 17 -118 23 -171 15z"/>
<path d="M5267 8499 c-71 -17 -79 -25 -72 -72 32 -188 236 -321 419 -272 85
22 88 26 69 88 -38 131 -112 214 -221 247 -67 21 -132 24 -195 9z"/>
<path d="M2061 8356 c-7 -8 -8 -17 -3 -20 5 -3 -19 -94 -54 -203 -59 -181 -69
-230 -45 -221 5 2 77 67 159 146 83 78 156 141 163 140 7 -2 14 5 17 14 5 24
-51 53 -67 34 -7 -8 -7 -16 -1 -22 7 -7 -33 -50 -115 -128 -69 -65 -125 -114
-125 -109 0 5 24 78 53 163 36 107 57 155 67 155 27 0 21 30 -9 48 -24 14 -30
15 -40 3z"/>
<path d="M3961 8321 c-26 -20 -23 -58 3 -48 11 4 30 -34 76 -150 33 -86 59
-157 58 -158 -2 -2 -59 44 -128 101 -90 75 -125 110 -125 125 0 31 -17 33 -49
8 -21 -17 -24 -24 -15 -35 6 -8 15 -12 19 -9 5 3 77 -52 162 -121 84 -70 159
-131 166 -137 8 -6 16 -7 22 -1 6 6 -19 82 -69 207 -45 111 -75 199 -70 203 6
3 5 11 -2 20 -15 18 -19 17 -48 -5z"/>
<path d="M8689 8286 c-106 -60 -65 -228 54 -228 112 0 167 126 89 205 -36 35
-102 46 -143 23z"/>
<path d="M925 8175 c-56 -40 -62 -49 -45 -70 10 -12 21 -7 70 28 48 35 56 45
49 60 -13 23 -17 22 -74 -18z"/>
<path d="M2305 8200 c-3 -5 -3 -15 0 -20 10 -15 -185 -317 -204 -316 -27 2
-22 -29 8 -47 26 -15 30 -15 42 -1 9 11 10 18 2 22 -16 10 177 312 198 312 31
0 30 29 -1 45 -34 18 -37 18 -45 5z"/>
<path d="M5176 8194 c-3 -9 -6 -17 -6 -19 0 -1 24 -21 54 -43 40 -30 56 -38
65 -29 20 20 12 34 -42 71 -59 41 -63 42 -71 20z"/>
<path d="M2376 8154 c-3 -9 -4 -20 0 -25 9 -15 -177 -300 -203 -310 -30 -11
-29 -23 3 -44 31 -20 58 -13 49 14 -8 26 180 322 199 315 28 -11 25 25 -3 46
-35 24 -37 24 -45 4z"/>
<path d="M2900 8032 c0 -11 4 -22 9 -24 5 -1 32 -93 60 -202 28 -110 55 -204
61 -210 17 -17 25 5 76 208 26 108 53 196 62 203 22 18 9 38 -27 41 -34 3 -55
-23 -30 -39 13 -8 -3 -85 -64 -309 -9 -33 -12 -25 -53 130 -24 91 -43 168 -44
173 0 4 7 7 16 7 9 0 14 7 12 17 -2 12 -15 18 -41 21 -31 3 -37 0 -37 -16z"/>
<path d="M3192 8032 c-3 -8 2 -19 11 -24 15 -8 17 -32 17 -187 0 -150 -2 -180
-15 -185 -8 -3 -15 -12 -15 -21 0 -11 11 -15 40 -15 33 0 40 3 40 20 0 11 -4
20 -10 20 -15 0 -13 367 2 372 6 2 9 12 5 21 -8 21 -67 20 -75 -1z"/>
<path d="M1091 7952 c-51 -45 -52 -48 -35 -64 18 -15 22 -13 73 32 47 42 53
51 42 64 -8 9 -16 16 -20 16 -3 0 -30 -22 -60 -48z"/>
<path d="M5004 7983 c-9 -15 -2 -26 41 -65 50 -46 53 -47 69 -29 16 18 14 21
-36 65 -29 25 -55 46 -58 46 -3 0 -10 -8 -16 -17z"/>
<path d="M1288 7756 c-45 -51 -47 -54 -30 -70 17 -15 20 -14 48 17 65 70 68
75 54 92 -7 8 -15 15 -19 14 -3 0 -27 -24 -53 -53z"/>
<path d="M4816 7795 c-18 -14 -17 -17 29 -70 45 -53 48 -55 66 -39 17 16 16
18 -28 70 -26 30 -47 54 -47 54 -1 0 -10 -7 -20 -15z"/>
<path d="M4606 7624 c-18 -13 -17 -16 19 -69 39 -56 54 -65 73 -42 8 9 -1 27
-32 69 -38 51 -43 55 -60 42z"/>
<path d="M1502 7576 c-30 -40 -38 -56 -29 -65 6 -6 16 -11 22 -11 17 0 87 100
81 116 -10 26 -34 14 -74 -40z"/>
<path d="M1759 7576 c-140 -50 -232 -181 -231 -331 0 -84 24 -155 53 -155 34
0 126 37 173 69 115 80 161 234 116 394 -10 33 -14 37 -43 37 -18 -1 -48 -7
-68 -14z"/>
<path d="M4283 7553 c-12 -26 -18 -65 -18 -123 0 -73 4 -93 28 -142 52 -105
153 -183 256 -195 l48 -5 14 48 c8 27 14 83 14 124 -1 132 -68 230 -199 290
-33 16 -76 31 -94 35 -30 6 -33 4 -49 -32z"/>
<path d="M1986 7304 c-31 -67 -31 -70 -7 -83 17 -9 22 -3 47 55 23 55 25 67
13 75 -23 14 -26 12 -53 -47z"/>
<path d="M4131 7351 c-12 -8 -9 -20 14 -74 26 -61 29 -65 50 -55 l23 10 -27
61 c-29 64 -37 72 -60 58z"/>
<path d="M3036 7230 c-26 -24 -60 -67 -74 -95 -24 -45 -27 -61 -27 -155 0 -94
3 -110 26 -155 28 -52 104 -135 125 -135 18 0 100 92 125 141 16 31 24 67 27
124 5 109 -19 175 -97 258 l-58 61 -47 -44z"/>
</g>
<g fill="#000000" stroke="none">
<path d="m 311 346 -6 0 -2 -38 0 -42 5 -80 5 80 0 42  z"
transform="rotate(90 308 308)"/>
<path d="m 311 366 -6 0 -2 -58 0 -122 5 -80 5 80 0 122 z"
transform="rotate(12 308 308)"/>
</g>
<g fill="#ff0000" stroke="none" fill-rule="evenodd"
transform="rotate(240 308 308)">
<path d="m 308 399 a 20 20 1 1 1 0.1 0z  m 6 -44 a 25 25 0 1 1 -12 0
l 0 -58 3 -5 1 -180 -4 -4 6 -60 6 60 -4 4 1 180 3 5 z"/>
</g>
<circle fill="#000000" stroke="none" cx="308" cy="308" r="22"/>
</svg>
