<?xml version="1.0" encoding="UTF-8"?>
<svg xmlns="http://www.w3.org/2000/svg" version="1.1" xmlns:xlink="http://www.w3.org/1999/xlink" width="512" height="512" viewBox="0 0 192 192">
  <title>SVG Swiss Railways analog clock</title>
  <circle style="stroke:#838383; stroke-width:5; fill:#eeeeee;" cx="96" cy="96" r="91" />
  <path style="stroke:#000; stroke-width:6; fill: none;" d="m 96 10 0 20" />
  <path style="stroke:#000; stroke-width:6; fill: none;" d="m 96 10 0 20" transform="rotate(30 96 96)" />
  <path style="stroke:#000; stroke-width:6; fill: none;" d="m 96 10 0 20" transform="rotate(60 96 96)" />
  <path style="stroke:#000; stroke-width:6; fill: none;" d="m 96 10 0 20" transform="rotate(90 96 96)" />
  <path style="stroke:#000; stroke-width:6; fill: none;" d="m 96 10 0 20" transform="rotate(90 96 96)" />
  <path style="stroke:#000; stroke-width:6; fill: none;" d="m 96 10 0 20" transform="rotate(120 96 96)" />
  <path style="stroke:#000; stroke-width:6; fill: none;" d="m 96 10 0 20" transform="rotate(150 96 96)" />
  <path style="stroke:#000; stroke-width:6; fill: none;" d="m 96 10 0 20" transform="rotate(180 96 96)" />
  <path style="stroke:#000; stroke-width:6; fill: none;" d="m 96 10 0 20" transform="rotate(210 96 96)" />
  <path style="stroke:#000; stroke-width:6; fill: none;" d="m 96 10 0 20" transform="rotate(240 96 96)" />
  <path style="stroke:#000; stroke-width:6; fill: none;" d="m 96 10 0 20" transform="rotate(270 96 96)" />
  <path style="stroke:#000; stroke-width:6; fill: none;" d="m 96 10 0 20" transform="rotate(300 96 96)" />
  <path style="stroke:#000; stroke-width:6; fill: none;" d="m 96 10 0 20" transform="rotate(330 96 96)" />
  <path style="stroke:#000; stroke-width:1.5; fill: none;" d="m 96 10 0 6" transform="rotate(6 96 96)" />
  <path style="stroke:#000; stroke-width:1.5; fill: none;" d="m 96 10 0 6" transform="rotate(12 96 96)" />
  <path style="stroke:#000; stroke-width:1.5; fill: none;" d="m 96 10 0 6" transform="rotate(18 96 96)" />
  <path style="stroke:#000; stroke-width:1.5; fill: none;" d="m 96 10 0 6" transform="rotate(24 96 96)" />
  <path style="stroke:#000; stroke-width:1.5; fill: none;" d="m 96 10 0 6" transform="rotate(36 96 96)" />
  <path style="stroke:#000; stroke-width:1.5; fill: none;" d="m 96 10 0 6" transform="rotate(42 96 96)" />
  <path style="stroke:#000; stroke-width:1.5; fill: none;" d="m 96 10 0 6" transform="rotate(48 96 96)" />
  <path style="stroke:#000; stroke-width:1.5; fill: none;" d="m 96 10 0 6" transform="rotate(54 96 96)" />
  <path style="stroke:#000; stroke-width:1.5; fill: none;" d="m 96 10 0 6" transform="rotate(66 96 96)" />
  <path style="stroke:#000; stroke-width:1.5; fill: none;" d="m 96 10 0 6" transform="rotate(72 96 96)" />
  <path style="stroke:#000; stroke-width:1.5; fill: none;" d="m 96 10 0 6" transform="rotate(78 96 96)" />
  <path style="stroke:#000; stroke-width:1.5; fill: none;" d="m 96 10 0 6" transform="rotate(84 96 96)" />
  <path style="stroke:#000; stroke-width:1.5; fill: none;" d="m 96 10 0 6" transform="rotate(96 96 96)" />
  <path style="stroke:#000; stroke-width:1.5; fill: none;" d="m 96 10 0 6" transform="rotate(102 96 96)" />
  <path style="stroke:#000; stroke-width:1.5; fill: none;" d="m 96 10 0 6" transform="rotate(108 96 96)" />
  <path style="stroke:#000; stroke-width:1.5; fill: none;" d="m 96 10 0 6" transform="rotate(114 96 96)" />
  <path style="stroke:#000; stroke-width:1.5; fill: none;" d="m 96 10 0 6" transform="rotate(126 96 96)" />
  <path style="stroke:#000; stroke-width:1.5; fill: none;" d="m 96 10 0 6" transform="rotate(132 96 96)" />
  <path style="stroke:#000; stroke-width:1.5; fill: none;" d="m 96 10 0 6" transform="rotate(138 96 96)" />
  <path style="stroke:#000; stroke-width:1.5; fill: none;" d="m 96 10 0 6" transform="rotate(144 96 96)" />
  <path style="stroke:#000; stroke-width:1.5; fill: none;" d="m 96 10 0 6" transform="rotate(156 96 96)" />
  <path style="stroke:#000; stroke-width:1.5; fill: none;" d="m 96 10 0 6" transform="rotate(162 96 96)" />
  <path style="stroke:#000; stroke-width:1.5; fill: none;" d="m 96 10 0 6" transform="rotate(168 96 96)" />
  <path style="stroke:#000; stroke-width:1.5; fill: none;" d="m 96 10 0 6" transform="rotate(174 96 96)" />
  <path style="stroke:#000; stroke-width:1.5; fill: none;" d="m 96 10 0 6" transform="rotate(186 96 96)" />
  <path style="stroke:#000; stroke-width:1.5; fill: none;" d="m 96 10 0 6" transform="rotate(192 96 96)" />
  <path style="stroke:#000; stroke-width:1.5; fill: none;" d="m 96 10 0 6" transform="rotate(198 96 96)" />
  <path style="stroke:#000; stroke-width:1.5; fill: none;" d="m 96 10 0 6" transform="rotate(204 96 96)" />
  <path style="stroke:#000; stroke-width:1.5; fill: none;" d="m 96 10 0 6" transform="rotate(216 96 96)" />
  <path style="stroke:#000; stroke-width:1.5; fill: none;" d="m 96 10 0 6" transform="rotate(222 96 96)" />
  <path style="stroke:#000; stroke-width:1.5; fill: none;" d="m 96 10 0 6" transform="rotate(228 96 96)" />
  <path style="stroke:#000; stroke-width:1.5; fill: none;" d="m 96 10 0 6" transform="rotate(234 96 96)" />
  <path style="stroke:#000; stroke-width:1.5; fill: none;" d="m 96 10 0 6" transform="rotate(246 96 96)" />
  <path style="stroke:#000; stroke-width:1.5; fill: none;" d="m 96 10 0 6" transform="rotate(252 96 96)" />
  <path style="stroke:#000; stroke-width:1.5; fill: none;" d="m 96 10 0 6" transform="rotate(258 96 96)" />
  <path style="stroke:#000; stroke-width:1.5; fill: none;" d="m 96 10 0 6" transform="rotate(264 96 96)" />
  <path style="stroke:#000; stroke-width:1.5; fill: none;" d="m 96 10 0 6" transform="rotate(276 96 96)" />
  <path style="stroke:#000; stroke-width:1.5; fill: none;" d="m 96 10 0 6" transform="rotate(282 96 96)" />
  <path style="stroke:#000; stroke-width:1.5; fill: none;" d="m 96 10 0 6" transform="rotate(288 96 96)" />
  <path style="stroke:#000; stroke-width:1.5; fill: none;" d="m 96 10 0 6" transform="rotate(294 96 96)" />
  <path style="stroke:#000; stroke-width:1.5; fill: none;" d="m 96 10 0 6" transform="rotate(306 96 96)" />
  <path style="stroke:#000; stroke-width:1.5; fill: none;" d="m 96 10 0 6" transform="rotate(312 96 96)" />
  <path style="stroke:#000; stroke-width:1.5; fill: none;" d="m 96 10 0 6" transform="rotate(318 96 96)" />
  <path style="stroke:#000; stroke-width:1.5; fill: none;" d="m 96 10 0 6" transform="rotate(324 96 96)" />
  <path style="stroke:#000; stroke-width:1.5; fill: none;" d="m 96 10 0 6" transform="rotate(336 96 96)" />
  <path style="stroke:#000; stroke-width:1.5; fill: none;" d="m 96 10 0 6" transform="rotate(342 96 96)" />
  <path style="stroke:#000; stroke-width:1.5; fill: none;" d="m 96 10 0 6" transform="rotate(348 96 96)" />
  <path style="stroke:#000; stroke-width:1.5; fill: none;" d="m 96 10 0 6" transform="rotate(354 96 96)" />

  <path style="fill:#000; stroke-width:0;" d="m 91 108 1 -70 8 0 1 70 z" transform="rotate(90 96 96)"/>
  <path style="stroke:#000; stroke-width:0;" d="m 92 108 1 -94 6 0 1 94 z" transform="rotate(12 96 96)"/>
  <circle style="fill:#ff0000;" cx="96" cy="96" r="2.5" />
  <circle style="fill:#ff0000;" cx="96" cy="40" r="10" transform="rotate(240 96 96)" />
  <path style="stroke: #ff0000; stroke-width:2;" d="m 96 120 0 -88" transform="rotate(240 96 96)"/>
</svg>
